# xmcd
#
# Track frame offsets:
#	150
#	15639
#	30541
#	46839
#	60580
#	74752
#	87302
#	100559
#	114146
#	127395
#	144125
#	162652
#
# Disc length: 2383 seconds
#
# Revision: 1
# Processed by: cddbd v1.5.2PL0 Copyright (c) Steve Scherf et al.
# Submitted via: audiograbber 1.83.01
#
DISCID=9d094d0c
DTITLE=Tanja Solem - Henderson Road
DYEAR=1900
DGENRE=
TTITLE0=Henderson Road No.Versjon
TTITLE1=Call me crazy
TTITLE2=En tur i det blå
TTITLE3=Warm summernights
TTITLE4=Throwing my life away
TTITLE5=Beyond my wildest dreams
TTITLE6=Deep down in my mind
TTITLE7=Hello how do you do
TTITLE8=Weddingsbells are ringing
TTITLE9=Dreaming of dreams
TTITLE10=Henderson Road Am.Versjon
TTITLE11=Cinderella
EXTD=
EXTT0=
EXTT1=
EXTT2=
EXTT3=
EXTT4=
EXTT5=
EXTT6=
EXTT7=
EXTT8=
EXTT9=
EXTT10=
EXTT11=
PLAYORDER=
